<?xml version="1.0" encoding="UTF-8"?>
<svg width="11px" height="10px" viewBox="0 0 11 10" version="1.1" xmlns="http://www.w3.org/2000/svg" xmlns:xlink="http://www.w3.org/1999/xlink">
    <!-- Generator: Sketch 42 (36781) - //www.bohemiancoding.com/sketch -->
    <title>Page 1</title>
    <desc>Created with Sketch.</desc>
    <defs></defs>
    <g id="Page-3" stroke="none" stroke-width="1" fill="none" fill-rule="evenodd">
        <g id="Artboard" transform="translate(-110.000000, -75.000000)" fill="#D0D0D0">
            <path d="M117.995021,75.6238368 C117.195021,75.6238368 116.422525,75.9582048 115.875021,76.5407168 L115.450653,76.9925888 L115.025661,76.5400928 C114.478157,75.9575968 113.705661,75.6238368 112.905661,75.6238368 C112.163789,75.6238368 111.456909,75.9038368 110.915101,76.4113408 C109.746973,77.5094688 109.689469,79.3539008 110.786976,80.5225408 C110.790101,80.5256656 115.15203,84.8775008 115.15203,84.8775008 C115.233906,84.959376 115.341406,85 115.44891,85 C115.55641,85 115.663278,84.9593744 115.745166,84.8775008 L120.103248,80.5325408 C121.21075,79.3544128 121.153246,77.5107008 119.985122,76.4113408 C119.443853,75.9032128 118.737597,75.6238368 117.995021,75.6238368 Z" id="Page-1"></path>
        </g>
    </g>
</svg>