<?xml version="1.0" encoding="UTF-8"?>
<svg width="13px" height="10px" viewBox="0 0 13 10" version="1.1" xmlns="http://www.w3.org/2000/svg" xmlns:xlink="http://www.w3.org/1999/xlink">
    <!-- Generator: Sketch 42 (36781) - //www.bohemiancoding.com/sketch -->
    <title>Page 1</title>
    <desc>Created with Sketch.</desc>
    <defs></defs>
    <g id="Page-3" stroke="none" stroke-width="1" fill="none" fill-rule="evenodd">
        <g id="Artboard" transform="translate(-127.000000, -75.000000)" fill="#D0D0D0">
            <path d="M133.500414,78.8887835 C132.890388,78.8887835 132.391103,79.3889258 132.391103,80 C132.391103,80.6110742 132.890388,81.1112165 133.500414,81.1112165 C134.110441,81.1112165 134.609726,80.6110742 134.609726,80 C134.609726,79.3889258 134.110441,78.8887835 133.500414,78.8887835 Z M133.500414,75 C128.870856,75 127.274656,78.976835 127.274656,78.976835 C126.930254,79.6033104 126.930724,80.6343596 127.313939,81.2450532 C127.313939,81.2450532 128.904364,85 133.500414,85 C138.096465,85 139.68689,81.2876548 139.68689,81.2876548 C140.052986,80.6685327 140.089167,79.6427977 139.726173,79.0199913 C139.726173,79.0199913 138.129972,75 133.500414,75 Z M133.500414,82.7778041 C131.947662,82.7778041 130.727372,81.5554186 130.727372,80 C130.727372,78.4445814 131.947662,77.2221959 133.500414,77.2221959 C135.053167,77.2221959 136.273457,78.4445814 136.273457,80 C136.273457,81.5554186 135.053167,82.7778041 133.500414,82.7778041 Z" id="Page-1"></path>
        </g>
    </g>
</svg>