<?xml version="1.0" encoding="UTF-8"?>
<svg width="40px" height="40px" viewBox="0 0 40 40" version="1.1" xmlns="http://www.w3.org/2000/svg" xmlns:xlink="http://www.w3.org/1999/xlink">
    <!-- Generator: Sketch 42 (36781) - //www.bohemiancoding.com/sketch -->
    <title>Combined Shape</title>
    <desc>Created with Sketch.</desc>
    <defs></defs>
    <g id="Page-2" stroke="none" stroke-width="1" fill="none" fill-rule="evenodd">
        <path d="M20,40 C8.954305,40 0,31.045695 0,20 C0,8.954305 8.954305,0 20,0 C31.045695,0 40,8.954305 40,20 C40,31.045695 31.045695,40 20,40 Z M20,38.0952381 C29.993724,38.0952381 38.0952381,29.993724 38.0952381,20 C38.0952381,10.006276 29.993724,1.9047619 20,1.9047619 C10.006276,1.9047619 1.9047619,10.006276 1.9047619,20 C1.9047619,29.993724 10.006276,38.0952381 20,38.0952381 Z M27.3334727,15.1590156 C29.475423,17.3012868 29.3172457,20.9546294 27.0260601,23.2930244 L26.9659696,23.3586716 L20.622015,29.700289 C20.4300136,29.8928374 20.1693284,30 19.8969586,30 C19.6254572,30 19.3637023,29.8926356 19.1723807,29.7007683 L12.8116897,23.3398669 L12.7700731,23.2960668 C10.4816638,20.9471444 10.3257227,17.2973551 12.4628061,15.1589904 C14.3897275,13.2320691 17.5567233,13.1530034 19.8992605,14.872392 C22.2394849,13.1545933 25.4084759,13.2340188 27.3334727,15.1590156 Z M25.5056409,21.921077 L25.5503091,21.8734391 C27.0881034,20.2989057 27.2197042,17.9394748 25.8854257,16.6072353 C24.5505566,15.2744065 22.1863367,15.4049177 20.6068675,16.9506743 C20.2060246,17.316243 19.5925655,17.316243 19.1759418,16.9356056 C18.3915269,16.151453 17.3306467,15.7043614 16.2190729,15.6888425 C15.3556686,15.6748233 14.5234424,16.0060958 13.9119618,16.6046413 C12.5751919,17.9414112 12.7093122,20.3007414 14.2500158,21.8743204 L14.2854172,21.9108205 L19.8971679,27.529184 L25.5056409,21.921077 Z" id="Combined-Shape" fill="#004E69" fill-rule="nonzero"></path>
    </g>
</svg>