<?xml version="1.0" encoding="UTF-8"?>
<svg width="40px" height="40px" viewBox="0 0 40 40" version="1.1" xmlns="http://www.w3.org/2000/svg" xmlns:xlink="http://www.w3.org/1999/xlink">
    <!-- Generator: Sketch 42 (36781) - //www.bohemiancoding.com/sketch -->
    <title>Combined Shape</title>
    <desc>Created with Sketch.</desc>
    <defs></defs>
    <g id="Page-2" stroke="none" stroke-width="1" fill="none" fill-rule="evenodd">
        <path d="M20,40 C8.954305,40 0,31.045695 0,20 C0,8.954305 8.954305,0 20,0 C31.045695,0 40,8.954305 40,20 C40,31.045695 31.045695,40 20,40 Z M20,38.0952381 C29.993724,38.0952381 38.0952381,29.993724 38.0952381,20 C38.0952381,10.006276 29.993724,1.9047619 20,1.9047619 C10.006276,1.9047619 1.9047619,10.006276 1.9047619,20 C1.9047619,29.993724 10.006276,38.0952381 20,38.0952381 Z M12.6121061,27.8174743 C12.3290463,28.092964 11.9094006,28.171911 11.5469058,28.0165948 C11.1856898,27.8620503 10.952381,27.5051594 10.952381,27.1110722 C10.952381,21.3197767 15.3599387,16.5146687 21.0052489,16.0119371 L21.0052538,12.8896355 C21.0052538,12.493585 21.2416887,12.1355883 21.605618,11.9814421 C21.9727047,11.8259585 22.3971615,11.9116789 22.6774885,12.1949421 L29.7142714,19.3054302 C30.0953957,19.6900225 30.0953957,20.3117 29.7144995,20.6939636 L22.6798222,27.8023073 C22.4959181,27.990755 22.2445468,28.0951711 21.9840879,28.0951711 C21.8538087,28.0951711 21.7246,28.0702764 21.605618,28.0192656 C21.2416887,27.8651194 21.0052538,27.5071226 21.0052538,27.1110722 L21.0052538,24.0660312 C17.8282764,24.2906588 14.8796728,25.6044228 12.6121061,27.8174743 Z M22.962922,16.9529031 C22.962922,17.495157 22.525657,17.937002 21.9840879,17.937002 C17.8063584,17.937002 14.2284104,20.8236275 13.2039451,24.7902777 C15.7583939,23.0152535 18.8015228,22.0637056 21.9840879,22.0637056 C22.525657,22.0637056 22.962922,22.5055506 22.962922,23.0478046 L22.962922,24.7266287 L27.6402059,20.0003538 L22.962922,15.2740789 L22.962922,16.9529031 Z" id="Combined-Shape" fill="#004E69" fill-rule="nonzero"></path>
    </g>
</svg>