<?xml version="1.0" encoding="UTF-8"?>
<svg width="34px" height="34px" viewBox="0 0 34 34" version="1.1" xmlns="http://www.w3.org/2000/svg" xmlns:xlink="http://www.w3.org/1999/xlink">
    <!-- Generator: Sketch 43.1 (39012) - http://www.bohemiancoding.com/sketch -->
    <title>Group 2 Copy 2</title>
    <desc>Created with Sketch.</desc>
    <defs></defs>
    <g id="V7---Kits-2" stroke="none" stroke-width="1" fill="none" fill-rule="evenodd">
        <g id="Browse-Kit" transform="translate(-359.000000, -452.000000)" fill-rule="nonzero" fill="#28677F">
            <g id="Group-2-Copy-2" transform="translate(359.000000, 452.000000)">
                <path d="M2,8.00187852 L2,28.9981215 C2,30.6555766 3.34510826,32 5.0042577,32 L28.9957423,32 C30.6573847,32 32,30.6573163 32,28.9981215 L32,8.00187852 C32,6.34442337 30.6548917,5 28.9957423,5 L5.0042577,5 C3.34261527,5 2,6.34268372 2,8.00187852 Z M9,3 L9,2.5 C9,1.12062968 10.1216212,0 11.4982452,0 L22.5017548,0 C23.8831614,0 25,1.1151728 25,2.5 L25,3 L28.9957423,3 C31.7592333,3 34,5.23962578 34,8.00187852 L34,28.9981215 C34,31.761863 31.7619771,34 28.9957423,34 L5.0042577,34 C2.24076672,34 0,31.7603742 0,28.9981215 L0,8.00187852 C0,5.23813705 2.23802295,3 5.0042577,3 L9,3 Z M11,3 L23,3 L23,2.5 C23,2.22041115 22.7792596,2 22.5017548,2 L11.4982452,2 C11.225795,2 11,2.22559535 11,2.5 L11,3 Z M24,3.5 L26,3.5 L26,32.5 L24,32.5 M8,3.5 L10,3.5 L10,32.5 L8,32.5" id="Combined-Shape"></path>
            </g>
        </g>
    </g>
</svg>