<?xml version="1.0" encoding="UTF-8"?>
<svg width="34px" height="34px" viewBox="0 0 34 34" version="1.1" xmlns="http://www.w3.org/2000/svg" xmlns:xlink="http://www.w3.org/1999/xlink">
    <!-- Generator: Sketch 42 (36781) - http://www.bohemiancoding.com/sketch -->
    <title>Combined Shape</title>
    <desc>Created with Sketch.</desc>
    <defs></defs>
    <g id="Page-2" stroke="none" stroke-width="1" fill="none" fill-rule="evenodd">
        <path d="M32,8 L12,8 L12,32 L29.9997876,32 C31.1038533,32 32,31.1040197 32,29.9997876 L32,8 Z M32,6 L32,4.00021236 C32,2.89614671 31.1040197,2 29.9997876,2 L4.00021236,2 C2.89614671,2 2,2.89598025 2,4.00021236 L2,6 L32,6 Z M2,8 L2,29.9997876 C2,31.1038533 2.89598025,32 4.00021236,32 L10,32 L10,8 L2,8 Z M0,4.00021236 C0,1.79095608 1.79203193,0 4.00021236,0 L29.9997876,0 C32.2090439,0 34,1.79203193 34,4.00021236 L34,29.9997876 C34,32.2090439 32.2079681,34 29.9997876,34 L4.00021236,34 C1.79095608,34 0,32.2079681 0,29.9997876 L0,4.00021236 Z M5,23 C4.44771525,23 4,22.5522847 4,22 C4,21.4477153 4.44771525,21 5,21 L7,21 C7.55228475,21 8,21.4477153 8,22 C8,22.5522847 7.55228475,23 7,23 L5,23 Z M5,20 C4.44771525,20 4,19.5522847 4,19 C4,18.4477153 4.44771525,18 5,18 L7,18 C7.55228475,18 8,18.4477153 8,19 C8,19.5522847 7.55228475,20 7,20 L5,20 Z M5,17 C4.44771525,17 4,16.5522847 4,16 C4,15.4477153 4.44771525,15 5,15 L7,15 C7.55228475,15 8,15.4477153 8,16 C8,16.5522847 7.55228475,17 7,17 L5,17 Z M17,23 C16.4477153,23 16,22.5522847 16,22 C16,21.4477153 16.4477153,21 17,21 L22,21 C22.5522847,21 23,21.4477153 23,22 C23,22.5522847 22.5522847,23 22,23 L17,23 Z M17,20 C16.4477153,20 16,19.5522847 16,19 C16,18.4477153 16.4477153,18 17,18 L19,18 C19.5522847,18 20,18.4477153 20,19 C20,19.5522847 19.5522847,20 19,20 L17,20 Z M17,17 C16.4477153,17 16,16.5522847 16,16 C16,15.4477153 16.4477153,15 17,15 L22,15 C22.5522847,15 23,15.4477153 23,16 C23,16.5522847 22.5522847,17 22,17 L17,17 Z M25,23 C24.4477153,23 24,22.5522847 24,22 C24,21.4477153 24.4477153,21 25,21 L27,21 C27.5522847,21 28,21.4477153 28,22 C28,22.5522847 27.5522847,23 27,23 L25,23 Z M25,17 C24.4477153,17 24,16.5522847 24,16 C24,15.4477153 24.4477153,15 25,15 L27,15 C27.5522847,15 28,15.4477153 28,16 C28,16.5522847 27.5522847,17 27,17 L25,17 Z M22,20 C21.4477153,20 21,19.5522847 21,19 C21,18.4477153 21.4477153,18 22,18 L27,18 C27.5522847,18 28,18.4477153 28,19 C28,19.5522847 27.5522847,20 27,20 L22,20 Z M11,5 C10.4477153,5 10,4.55228475 10,4 C10,3.44771525 10.4477153,3 11,3 C11.5522847,3 12,3.44771525 12,4 C12,4.55228475 11.5522847,5 11,5 Z M8,5 C7.44771525,5 7,4.55228475 7,4 C7,3.44771525 7.44771525,3 8,3 C8.55228475,3 9,3.44771525 9,4 C9,4.55228475 8.55228475,5 8,5 Z M5,5 C4.44771525,5 4,4.55228475 4,4 C4,3.44771525 4.44771525,3 5,3 C5.55228475,3 6,3.44771525 6,4 C6,4.55228475 5.55228475,5 5,5 Z" id="Combined-Shape" fill="#9B9B9B"></path>
    </g>
</svg>