<?xml version="1.0" encoding="UTF-8"?>
<svg width="36px" height="36px" viewBox="0 0 36 36" version="1.1" xmlns="http://www.w3.org/2000/svg" xmlns:xlink="http://www.w3.org/1999/xlink">
    <!-- Generator: Sketch 42 (36781) - //www.bohemiancoding.com/sketch -->
    <title>Combined Shape</title>
    <desc>Created with Sketch.</desc>
    <defs></defs>
    <g id="Page-1" stroke="none" stroke-width="1" fill="none" fill-rule="evenodd">
        <g id="Artboard" transform="translate(-220.000000, -369.000000)" fill-rule="nonzero" fill="#979797">
            <path d="M222,374.000212 L222,399.999788 C222,401.656096 223.343654,403 225.000212,403 L250.999788,403 C252.656096,403 254,401.656346 254,399.999788 L254,374.000212 C254,372.343904 252.656346,371 250.999788,371 L225.000212,371 C223.343904,371 222,372.343654 222,374.000212 Z M220,374.000212 C220,371.239001 222.239417,369 225.000212,369 L250.999788,369 C253.760999,369 256,371.239417 256,374.000212 L256,399.999788 C256,402.760999 253.760583,405 250.999788,405 L225.000212,405 C222.239001,405 220,402.760583 220,399.999788 L220,374.000212 Z M238,374 C245.169394,374 251,379.838321 251,387.0115 C251,394.181226 245.173348,400 238,400 C230.826652,400 225,394.181226 225,387.0115 C225,379.838321 230.830606,374 238,374 Z M238,376 C231.935768,376 227,380.942299 227,387.0115 C227,393.07605 231.930617,398 238,398 C244.069383,398 249,393.07605 249,387.0115 C249,380.942299 244.064232,376 238,376 Z M238,378 L238,379.448969 L238.724484,379.448969 L238.724484,378 L238,378 Z M233.633682,379 L233,379.362242 L233.724484,380.618981 L234.358167,380.256739 L233.633682,379 Z M242.724484,379 L242,380.256739 L242.633682,380.618981 L243.358167,379.362242 L242.724484,379 Z M244.450208,380.062664 L236.77502,385.700119 C236.745075,385.722819 236.718511,385.749384 236.69581,385.779329 L231.058355,393.465626 C230.964172,393.60521 230.986873,393.809031 231.105688,393.925915 C231.226436,394.043281 231.430257,394.060186 231.567909,393.964071 L239.243097,388.337725 C239.273043,388.315024 239.299607,388.288943 239.322308,388.258515 L244.959762,380.572218 C245.063122,380.432634 245.020136,380.230744 244.902769,380.106133 C244.670934,379.939985 244.657894,380.004222 244.450208,380.062664 Z M230.362242,382 L230,382.622574 L231.256256,383.347058 L231.618498,382.724484 L230.362242,382 Z M246.256256,382 L245,382.724484 L245.362242,383.347058 L246.618498,382.622574 L246.256256,382 Z M229,387 L229,387.724484 L230.448969,387.724484 L230.448969,387 L229,387 Z M246,387 L246,387.724484 L247.448969,387.724484 L247.448969,387 L246,387 Z M231.256256,391 L230,391.724484 L230.362242,392.347058 L231.618498,391.622574 L231.256256,391 Z M245.362242,391 L245,391.622574 L246.256256,392.347058 L246.618498,391.724484 L245.362242,391 Z M233.724484,394 L233,395.256256 L233.633682,395.618498 L234.358167,394.362242 L233.724484,394 Z M242.633682,394 L242,394.362242 L242.724484,395.618498 L243.358167,395.256256 L242.633682,394 Z M238,395 L238,396.448969 L238.724484,396.448969 L238.724484,395 L238,395 Z" id="Combined-Shape"></path>
        </g>
    </g>
</svg>