<?xml version="1.0" encoding="UTF-8"?>
<svg width="36px" height="36px" viewBox="0 0 36 36" version="1.1" xmlns="http://www.w3.org/2000/svg" xmlns:xlink="http://www.w3.org/1999/xlink">
    <!-- Generator: Sketch 42 (36781) - http://www.bohemiancoding.com/sketch -->
    <title>Combined Shape</title>
    <desc>Created with Sketch.</desc>
    <defs></defs>
    <g id="Page-2" stroke="none" stroke-width="1" fill="none" fill-rule="evenodd">
        <path d="M2,5.00021236 L2,30.9997876 C2,32.6560965 3.34365392,34 5.00021236,34 L30.9997876,34 C32.6560965,34 34,32.6563461 34,30.9997876 L34,5.00021236 C34,3.34390353 32.6563461,2 30.9997876,2 L5.00021236,2 C3.34390353,2 2,3.34365392 2,5.00021236 Z M0,5.00021236 C0,2.23900124 2.23941719,0 5.00021236,0 L30.9997876,0 C33.7609988,0 36,2.23941719 36,5.00021236 L36,30.9997876 C36,33.7609988 33.7605828,36 30.9997876,36 L5.00021236,36 C2.23900124,36 0,33.7605828 0,30.9997876 L0,5.00021236 Z M21,14 C18.790861,14 17,12.209139 17,10 C17,7.790861 18.790861,6 21,6 C23.209139,6 25,7.790861 25,10 C25,12.209139 23.209139,14 21,14 Z M21,12 C22.1045695,12 23,11.1045695 23,10 C23,8.8954305 22.1045695,8 21,8 C19.8954305,8 19,8.8954305 19,10 C19,11.1045695 19.8954305,12 21,12 Z M20.9270568,25.2888145 L11.0247139,16.3434699 L1.66526131,24.683134 L0.334738692,23.1899128 L11.0338799,13.6565301 L20.9166932,22.5842324 L27.973788,16.1102553 L35.5312469,23.2075737 L34.1621125,24.6654732 L27.9578526,18.8389634 L20.9270568,25.2888145 Z" id="Combined-Shape" fill="#9B9B9B" fill-rule="nonzero"></path>
    </g>
</svg>