<?xml version="1.0" encoding="UTF-8"?>
<svg width="34px" height="34px" viewBox="0 0 34 34" version="1.1" xmlns="http://www.w3.org/2000/svg" xmlns:xlink="http://www.w3.org/1999/xlink">
    <!-- Generator: Sketch 42 (36781) - //www.bohemiancoding.com/sketch -->
    <title>Combined Shape</title>
    <desc>Created with Sketch.</desc>
    <defs></defs>
    <g id="Page-2" stroke="none" stroke-width="1" fill="none" fill-rule="evenodd">
        <path d="M2,2 L2,7 L7,7 L7,2 L2,2 Z M0,1.9973917 C0,0.894262725 0.895857811,0 1.9973917,0 L7.0026083,0 C8.10573727,0 9,0.895857811 9,1.9973917 L9,7.0026083 C9,8.10573727 8.10414219,9 7.0026083,9 L1.9973917,9 C0.894262725,9 0,8.10414219 0,7.0026083 L0,1.9973917 Z M2,20 L7,20 L7,15 L2,15 L2,20 Z M0,14.9973917 C0,13.8942627 0.895857811,13 1.9973917,13 L7.0026083,13 C8.10573727,13 9,13.8958578 9,14.9973917 L9,20.0026083 C9,21.1057373 8.10414219,22 7.0026083,22 L1.9973917,22 C0.894262725,22 0,21.1041422 0,20.0026083 L0,14.9973917 Z M2,32 L7,32 L7,27 L2,27 L2,32 Z M0,26.9973917 C0,25.8942627 0.895857811,25 1.9973917,25 L7.0026083,25 C8.10573727,25 9,25.8958578 9,26.9973917 L9,32.0026083 C9,33.1057373 8.10414219,34 7.0026083,34 L1.9973917,34 C0.894262725,34 0,33.1041422 0,32.0026083 L0,26.9973917 Z M14,2 L14,7 L19,7 L19,2 L14,2 Z M12,1.9973917 C12,0.894262725 12.8958578,0 13.9973917,0 L19.0026083,0 C20.1057373,0 21,0.895857811 21,1.9973917 L21,7.0026083 C21,8.10573727 20.1041422,9 19.0026083,9 L13.9973917,9 C12.8942627,9 12,8.10414219 12,7.0026083 L12,1.9973917 Z M14,20 L19,20 L19,15 L14,15 L14,20 Z M12,14.9973917 C12,13.8942627 12.8958578,13 13.9973917,13 L19.0026083,13 C20.1057373,13 21,13.8958578 21,14.9973917 L21,20.0026083 C21,21.1057373 20.1041422,22 19.0026083,22 L13.9973917,22 C12.8942627,22 12,21.1041422 12,20.0026083 L12,14.9973917 Z M14,32 L19,32 L19,27 L14,27 L14,32 Z M12,26.9973917 C12,25.8942627 12.8958578,25 13.9973917,25 L19.0026083,25 C20.1057373,25 21,25.8958578 21,26.9973917 L21,32.0026083 C21,33.1057373 20.1041422,34 19.0026083,34 L13.9973917,34 C12.8942627,34 12,33.1041422 12,32.0026083 L12,26.9973917 Z M27,2 L27,7 L32,7 L32,2 L27,2 Z M25,1.9973917 C25,0.894262725 25.8958578,0 26.9973917,0 L32.0026083,0 C33.1057373,0 34,0.895857811 34,1.9973917 L34,7.0026083 C34,8.10573727 33.1041422,9 32.0026083,9 L26.9973917,9 C25.8942627,9 25,8.10414219 25,7.0026083 L25,1.9973917 Z M27,20 L32,20 L32,15 L27,15 L27,20 Z M25,14.9973917 C25,13.8942627 25.8958578,13 26.9973917,13 L32.0026083,13 C33.1057373,13 34,13.8958578 34,14.9973917 L34,20.0026083 C34,21.1057373 33.1041422,22 32.0026083,22 L26.9973917,22 C25.8942627,22 25,21.1041422 25,20.0026083 L25,14.9973917 Z M27,32 L32,32 L32,27 L27,27 L27,32 Z M25,26.9973917 C25,25.8942627 25.8958578,25 26.9973917,25 L32.0026083,25 C33.1057373,25 34,25.8958578 34,26.9973917 L34,32.0026083 C34,33.1057373 33.1041422,34 32.0026083,34 L26.9973917,34 C25.8942627,34 25,33.1041422 25,32.0026083 L25,26.9973917 Z" id="Combined-Shape" fill="#979797" fill-rule="nonzero"></path>
    </g>
</svg>