<?xml version="1.0" encoding="UTF-8"?>
<svg width="34px" height="34px" viewBox="0 0 34 34" version="1.1" xmlns="http://www.w3.org/2000/svg" xmlns:xlink="http://www.w3.org/1999/xlink">
    <!-- Generator: Sketch 42 (36781) - //www.bohemiancoding.com/sketch -->
    <title>Combined Shape</title>
    <desc>Created with Sketch.</desc>
    <defs></defs>
    <g id="Page-2" stroke="none" stroke-width="1" fill="none" fill-rule="evenodd">
        <path d="M23.3695561,5.00151651 C23.4129152,5.00050736 23.4563983,5 23.5,5 C26.5375661,5 29,7.46243388 29,10.5 C29,10.5429998 28.9995065,10.5858844 28.998525,10.6286483 C28.9995066,10.672316 29,10.7161017 29,10.76 C29,13.9411602 26.4201883,16.52 23.2361375,16.52 L10.7638625,16.52 C7.58056914,16.52 5,13.9346871 5,10.76 C5,7.57883984 7.57981175,5 10.7638625,5 L23.2361375,5 C23.2807305,5 23.3252051,5.00050733 23.3695561,5.00151651 Z M19.2571621,7 L10.7638625,7 C8.68438343,7 7,8.68340748 7,10.76 C7,12.8324005 8.68742128,14.52 10.7638625,14.52 L19.746359,14.52 C18.6717577,13.5161734 18,12.0865354 18,10.5 C18,9.17037081 18.4718176,7.95094054 19.2571621,7 Z M5.00147501,23.6286483 C5.00049345,23.5858844 5,23.5429998 5,23.5 C5,20.4624339 7.46243388,18 10.5,18 C10.5436017,18 10.5870848,18.0005074 10.6304439,18.0015165 C10.6747949,18.0005073 10.7192695,18 10.7638625,18 L23.2361375,18 C26.4201883,18 29,20.5788398 29,23.76 C29,26.9346871 26.4194309,29.52 23.2361375,29.52 L10.7638625,29.52 C7.57981175,29.52 5,26.9411602 5,23.76 C5,23.7161017 5.00049341,23.672316 5.00147501,23.6286483 Z M14.253641,27.52 L23.2361375,27.52 C25.3125787,27.52 27,25.8324005 27,23.76 C27,21.6834075 25.3156166,20 23.2361375,20 L14.7428379,20 C15.5281824,20.9509405 16,22.1703708 16,23.5 C16,25.0865354 15.3282423,26.5161734 14.253641,27.52 Z M2,4.00021236 L2,29.9997876 C2,31.1038533 2.89598025,32 4.00021236,32 L29.9997876,32 C31.1038533,32 32,31.1040197 32,29.9997876 L32,4.00021236 C32,2.89614671 31.1040197,2 29.9997876,2 L4.00021236,2 C2.89614671,2 2,2.89598025 2,4.00021236 Z M0,4.00021236 C0,1.79095608 1.79203193,0 4.00021236,0 L29.9997876,0 C32.2090439,0 34,1.79203193 34,4.00021236 L34,29.9997876 C34,32.2090439 32.2079681,34 29.9997876,34 L4.00021236,34 C1.79095608,34 0,32.2079681 0,29.9997876 L0,4.00021236 Z" id="Combined-Shape" fill="#9B9B9B" fill-rule="nonzero"></path>
    </g>
</svg>