<?xml version="1.0" encoding="UTF-8"?>
<svg width="34px" height="34px" viewBox="0 0 34 34" version="1.1" xmlns="http://www.w3.org/2000/svg" xmlns:xlink="http://www.w3.org/1999/xlink">
    <!-- Generator: Sketch 42 (36781) - //www.bohemiancoding.com/sketch -->
    <title>Combined Shape</title>
    <desc>Created with Sketch.</desc>
    <defs></defs>
    <g id="Page-2" stroke="none" stroke-width="1" fill="none" fill-rule="evenodd">
        <path d="M23,2 L23,10 L21,10 L21,2 L4.00021236,2 C2.89614671,2 2,2.89598025 2,4.00021236 L2,10 L32,10 L32,4.00021236 C32,2.89614671 31.1040197,2 29.9997876,2 L23,2 Z M32,12 L2,12 L2,29.9997876 C2,31.1038533 2.89598025,32 4.00021236,32 L29.9997876,32 C31.1038533,32 32,31.1040197 32,29.9997876 L32,12 Z M0,4.00021236 C0,1.79095608 1.79203193,0 4.00021236,0 L29.9997876,0 C32.2090439,0 34,1.79203193 34,4.00021236 L34,29.9997876 C34,32.2090439 32.2079681,34 29.9997876,34 L4.00021236,34 C1.79095608,34 0,32.2079681 0,29.9997876 L0,4.00021236 Z M5,18 C4.44771525,18 4,17.5522847 4,17 C4,16.4477153 4.44771525,16 5,16 L22.5268555,16 C23.0791402,16 23.5268555,16.4477153 23.5268555,17 C23.5268555,17.5522847 23.0791402,18 22.5268555,18 L5,18 Z M5,7 C4.44771525,7 4,6.55228475 4,6 C4,5.44771525 4.44771525,5 5,5 L13,5 C13.5522847,5 14,5.44771525 14,6 C14,6.55228475 13.5522847,7 13,7 L5,7 Z M5,23 C4.44771525,23 4,22.5522847 4,22 C4,21.4477153 4.44771525,21 5,21 L18,21 C18.5522847,21 19,21.4477153 19,22 C19,22.5522847 18.5522847,23 18,23 L5,23 Z M5,28 C4.44771525,28 4,27.5522847 4,27 C4,26.4477153 4.44771525,26 5,26 L22.5268555,26 C23.0791402,26 23.5268555,26.4477153 23.5268555,27 C23.5268555,27.5522847 23.0791402,28 22.5268555,28 L5,28 Z M28.2928932,7.22229932 L27.4920056,6.42141166 L26.714232,7.21510159 C26.3276829,7.60956102 25.6945504,7.61597361 25.3000909,7.22942452 C24.9056315,6.84287542 24.8992189,6.20974292 25.285768,5.81528349 L26.7705755,4.30009095 C27.1598958,3.90280359 27.7985902,3.89956921 28.1919142,4.29289322 L29.7071068,5.80808576 C30.0976311,6.19861005 30.0976311,6.83177503 29.7071068,7.22229932 C29.3165825,7.61282361 28.6834175,7.61282361 28.2928932,7.22229932 Z" id="Combined-Shape" fill="#9B9B9B" fill-rule="nonzero"></path>
    </g>
</svg>