<?xml version="1.0" encoding="UTF-8"?>
<svg width="23px" height="22px" viewBox="0 0 23 22" version="1.1" xmlns="http://www.w3.org/2000/svg" xmlns:xlink="http://www.w3.org/1999/xlink">
    <!-- Generator: Sketch 42 (36781) - http://www.bohemiancoding.com/sketch -->
    <title>Combined Shape</title>
    <desc>Created with Sketch.</desc>
    <defs></defs>
    <g id="Page-2" stroke="none" stroke-width="1" fill="none" fill-rule="evenodd">
        <g id="Category-Focus-Copy" transform="translate(-1373.000000, -624.000000)" fill="#9B9B9B">
            <path d="M1387.35738,626.001707 L1387.35738,626.001707 C1389.93845,626.001707 1392.26384,627.52792 1393.25105,629.870187 C1394.23916,632.210987 1393.69313,634.906133 1391.86836,636.696933 C1390.0436,638.4892 1387.29913,639.025413 1384.91549,638.055947 C1382.53156,637.085307 1380.97742,634.801707 1380.97742,632.267307 C1380.97742,630.605867 1381.64949,629.011893 1382.84669,627.837387 C1384.04269,626.661707 1385.66553,626.001707 1387.35738,626.001707 L1387.35738,626.001707 Z M1387.35738,624.073333 C1388.47303,624.07216 1389.57792,624.290987 1390.60575,624.718373 C1394.85179,626.479547 1396.83905,631.288747 1395.04565,635.457307 C1393.25105,639.626747 1388.35504,641.579467 1384.109,639.81712 C1380.45349,638.298827 1378.39186,634.46144 1379.18043,630.64136 C1379.9693,626.820987 1383.38794,624.074507 1387.35738,624.073333 Z M1373.65356,644.214773 L1378.71953,639.239547 C1379.15384,638.813333 1379.82114,638.771973 1380.20258,639.146853 C1380.58432,639.52144 1380.54221,640.17792 1380.10819,640.603253 L1375.04192,645.578187 C1374.60791,646.004693 1373.94031,646.04576 1373.55887,645.671173 C1373.17743,645.295413 1373.21925,644.639813 1373.65356,644.214773 Z" id="Combined-Shape"></path>
        </g>
    </g>
</svg>