<?xml version="1.0" encoding="UTF-8"?>
<svg width="32px" height="32px" viewBox="0 0 32 32" version="1.1" xmlns="http://www.w3.org/2000/svg" xmlns:xlink="http://www.w3.org/1999/xlink">
    <!-- Generator: Sketch 43.1 (39012) - http://www.bohemiancoding.com/sketch -->
    <title>Combined Shape</title>
    <desc>Created with Sketch.</desc>
    <defs></defs>
    <g id="V7---Kits-2" stroke="none" stroke-width="1" fill="none" fill-rule="evenodd">
        <g id="Kit-Page---download" transform="translate(-656.000000, -375.000000)" fill-rule="nonzero" fill="#00435B">
            <g id="Group-7" transform="translate(166.000000, 352.000000)">
                <path d="M506,55 C497.163444,55 490,47.836556 490,39 C490,30.163444 497.163444,23 506,23 C514.836556,23 522,30.163444 522,39 C522,47.836556 514.836556,55 506,55 Z M506,53 C513.731986,53 520,46.7319865 520,39 C520,31.2680135 513.731986,25 506,25 C498.268014,25 492,31.2680135 492,39 C492,46.7319865 498.268014,53 506,53 Z M504.45,41.716 L506.76,41.044 C506.529,40.855 506.361,40.498 506.361,40.162 C506.361,38.398 509.868,38.167 509.868,35.101 C509.868,33.148 508.209,31.783 505.5,31.783 C503.694,31.783 502.014,32.497 500.901,33.82 L502.602,35.731 C503.253,34.933 504.135,34.429 505.185,34.429 C506.34,34.429 506.844,34.975 506.844,35.626 C506.844,37.075 503.757,37.369 503.757,39.847 C503.757,40.582 504.009,41.233 504.45,41.716 Z M505.458,46.231 C506.382,46.231 507.159,45.454 507.159,44.53 C507.159,43.606 506.382,42.829 505.458,42.829 C504.534,42.829 503.757,43.606 503.757,44.53 C503.757,45.454 504.534,46.231 505.458,46.231 Z" id="Combined-Shape"></path>
            </g>
        </g>
    </g>
</svg>