<?xml version="1.0" encoding="UTF-8"?>
<svg width="60px" height="60px" viewBox="0 0 60 60" version="1.1" xmlns="http://www.w3.org/2000/svg" xmlns:xlink="http://www.w3.org/1999/xlink">
    <!-- Generator: Sketch 42 (36781) - http://www.bohemiancoding.com/sketch -->
    <title>Page 1</title>
    <desc>Created with Sketch.</desc>
    <defs></defs>
    <g id="Page-3" stroke="none" stroke-width="1" fill="none" fill-rule="evenodd">
        <g id="Featured-Hover" transform="translate(-35.000000, -649.000000)" fill="#FFFFFF">
            <path d="M91,653 L91,673 L71,673 L71,653 L91,653 L91,653 Z M91,649 L71,649 C68.8008,649 67,650.8008 67,653 L67,673 C67,675.1992 68.8008,677 71,677 L91,677 C93.1992,677 95,675.1992 95,673 L95,653 C95,650.8008 93.1992,649 91,649 Z M59,653 L59,673 L39,673 L39,653 L59,653 L59,653 Z M59,649 L39,649 C36.8008,649 35,650.8008 35,653 L35,673 C35,675.1992 36.8008,677 39,677 L59,677 C61.1992,677 63,675.1992 63,673 L63,653 C63,650.8008 61.1992,649 59,649 Z M91,685 L91,705 L71,705 L71,685 L91,685 L91,685 Z M91,681 L71,681 C68.8008,681 67,682.8008 67,685 L67,705 C67,707.1992 68.8008,709 71,709 L91,709 C93.1992,709 95,707.1992 95,705 L95,685 C95,682.8008 93.1992,681 91,681 Z M59,685 L59,705 L39,705 L39,685 L59,685 L59,685 Z M59,681 L39,681 C36.8008,681 35,682.8008 35,685 L35,705 C35,707.1992 36.8008,709 39,709 L59,709 C61.1992,709 63,707.1992 63,705 L63,685 C63,682.8008 61.1992,681 59,681 Z" id="Page-1"></path>
        </g>
    </g>
</svg>