<?xml version="1.0" encoding="UTF-8"?>
<svg width="25px" height="24px" viewBox="0 0 25 24" version="1.1" xmlns="http://www.w3.org/2000/svg" xmlns:xlink="http://www.w3.org/1999/xlink">
    <!-- Generator: Sketch 42 (36781) - //www.bohemiancoding.com/sketch -->
    <title>Combined Shape</title>
    <desc>Created with Sketch.</desc>
    <defs></defs>
    <g id="Page-2" stroke="none" stroke-width="1" fill="none" fill-rule="evenodd">
        <path d="M5.67070571,20 C6.08254212,18.8348076 7.19378117,18 8.5,18 C9.80621883,18 10.9174579,18.8348076 11.3292943,20 L24.1077554,20 C24.6005285,20 25,20.4477153 25,21 C25,21.5522847 24.6005285,22 24.1077554,22 L11.3292943,22 C10.9174579,23.1651924 9.80621883,24 8.5,24 C7.19378117,24 6.08254212,23.1651924 5.67070571,22 L0.892244564,22 C0.399471498,22 0,21.5522847 0,21 C0,20.4477153 0.399471498,20 0.892244564,20 L5.67070571,20 Z M19.3292943,13 C18.9174579,14.1651924 17.8062188,15 16.5,15 C15.1937812,15 14.0825421,14.1651924 13.6707057,13 L0.892244564,13 C0.399471498,13 0,12.5522847 0,12 C0,11.4477153 0.399471498,11 0.892244564,11 L13.6707057,11 C14.0825421,9.83480763 15.1937812,9 16.5,9 C17.8062188,9 18.9174579,9.83480763 19.3292943,11 L24.1077554,11 C24.6005285,11 25,11.4477153 25,12 C25,12.5522847 24.6005285,13 24.1077554,13 L19.3292943,13 Z M5.67070571,2 C6.08254212,0.834807627 7.19378117,0 8.5,0 C9.80621883,0 10.9174579,0.834807627 11.3292943,2 L24.1077554,2 C24.6005285,2 25,2.44771525 25,3 C25,3.55228475 24.6005285,4 24.1077554,4 L11.3292943,4 C10.9174579,5.16519237 9.80621883,6 8.5,6 C7.19378117,6 6.08254212,5.16519237 5.67070571,4 L0.892244564,4 C0.399471498,4 0,3.55228475 0,3 C0,2.44771525 0.399471498,2 0.892244564,2 L5.67070571,2 Z M8.5,4 C9.05228475,4 9.5,3.55228475 9.5,3 C9.5,2.44771525 9.05228475,2 8.5,2 C7.94771525,2 7.5,2.44771525 7.5,3 C7.5,3.55228475 7.94771525,4 8.5,4 Z M16.5,13 C17.0522847,13 17.5,12.5522847 17.5,12 C17.5,11.4477153 17.0522847,11 16.5,11 C15.9477153,11 15.5,11.4477153 15.5,12 C15.5,12.5522847 15.9477153,13 16.5,13 Z M8.5,22 C9.05228475,22 9.5,21.5522847 9.5,21 C9.5,20.4477153 9.05228475,20 8.5,20 C7.94771525,20 7.5,20.4477153 7.5,21 C7.5,21.5522847 7.94771525,22 8.5,22 Z" id="Combined-Shape" fill="#979797" fill-rule="nonzero"></path>
    </g>
</svg>