<?xml version="1.0" encoding="UTF-8"?>
<svg width="21px" height="18px" viewBox="0 0 21 18" version="1.1" xmlns="http://www.w3.org/2000/svg" xmlns:xlink="http://www.w3.org/1999/xlink">
    <!-- Generator: Sketch 43.1 (39012) - http://www.bohemiancoding.com/sketch -->
    <title>Share</title>
    <desc>Created with Sketch.</desc>
    <defs></defs>
    <g id="V7---Kits-2" stroke="none" stroke-width="1" fill="none" fill-rule="evenodd">
        <g id="Individual-Item---2-active-code-Copy-2" transform="translate(-1108.000000, -119.000000)" stroke="#1197EB" fill="#1197EB">
            <path d="M1109.32117,135.957834 C1109.51567,136.041172 1109.74114,135.998792 1109.89398,135.850036 C1112.48979,133.316629 1115.90387,131.870024 1119.55552,131.742316 L1119.55552,135.466626 C1119.55552,135.682223 1119.68415,135.876488 1119.88091,135.959825 C1119.94593,135.987699 1120.01517,135.99993 1120.08329,135.99993 C1120.22065,135.99993 1120.35605,135.945604 1120.45597,135.843209 L1127.84483,128.376955 C1128.05172,128.169322 1128.05172,127.831421 1127.84483,127.62265 L1120.45597,120.156396 C1120.30538,120.004227 1120.07766,119.95758 1119.88091,120.040918 C1119.68415,120.124255 1119.55552,120.31852 1119.55552,120.534117 L1119.55552,124.279475 C1113.68834,124.558215 1109,129.470299 1109,135.466626 C1109,135.681085 1109.12638,135.874497 1109.32117,135.957834 Z M1120.08329,125.333852 C1120.37462,125.333852 1120.61107,125.094932 1120.61107,124.800548 L1120.61107,121.821726 L1126.72567,128.000372 L1120.61107,134.179017 L1120.61107,131.200195 C1120.61107,130.905811 1120.37462,130.666891 1120.08329,130.666891 C1116.40097,130.666891 1112.91427,131.916955 1110.1324,134.211157 C1110.74602,129.213745 1114.97499,125.333852 1120.08329,125.333852 Z" id="Share"></path>
        </g>
    </g>
</svg>