<svg xmlns="http://www.w3.org/2000/svg" width="84" height="84" viewBox="0 0 84 84" xmlns:xlink="http://www.w3.org/1999/xlink">
  <defs>
    <circle id="a" cx="42" cy="42" r="42"/>
  </defs>
  <g fill="none" fill-rule="evenodd">
    <mask id="b" fill="white">
      <use xlink:href="#a"/>
    </mask>
    <use fill="#004E69" xlink:href="#a"/>
    <g fill-rule="nonzero" transform="translate(8.8 4.8)" mask="url(#b)">
      <path fill="#EAF6FD" d="M61.4715186,64.3415453 C60.4679901,64.3415453 59.3856625,63.8763541 58.6138958,60.310664 C57.842129,56.7449738 56.6833201,53.1002012 56.6833201,53.1002012 C57.367142,53.1237404 58.0414815,52.9344411 58.6138958,52.5582535 C57.76333,52.1698189 55.9092357,50.853328 54.6739454,49.225159 C53.4386551,47.5969899 50.2704715,44.9593561 50.2704715,44.9593561 L50.2704715,39.6864145 C50.2704715,36.1207243 52.5486898,33.3295775 52.5486898,33.3295775 C51.0028387,33.3295775 50.2704715,34.7251509 50.2704715,34.7251509 L50.2704715,27.205336 C50.2704715,19.7622777 54.0180596,16.4291831 54.0180596,16.4291831 C53.3418337,16.3770353 52.6664042,16.5397867 52.0874839,16.8943742 C52.6274888,11.388837 54.3077618,9.76066801 54.3077618,9.76066801 C48.1266749,8.13249899 44.6803772,11.7772716 44.6803772,11.7772716 C43.9850918,8.44417706 46.7036576,6.50432998 46.7036576,6.50432998 C44.7838784,6.08781039 42.7901095,6.16784806 40.9096129,6.73692555 C40.9096129,1.85241851 42.8448238,0.224249497 42.8448238,0.224249497 C33.1873102,0.224249497 27.7038263,7.51146881 27.7038263,7.51146881 C27.4853155,5.56127592 27.642683,3.58710427 28.1673499,1.69657948 C18.820397,5.65070423 16.3474988,14.4079276 16.3474988,14.4079276 C15.7286948,12.9355976 15.6522134,9.59087324 15.6522134,9.59087324 C15.6522134,9.59087324 11.7980149,16.0779638 11.1027295,20.5763622 C10.4074442,25.0747606 11.7215335,37.9814889 11.7215335,37.9814889 C11.2140372,37.4434707 10.5266469,37.1122038 9.79095782,37.0511066 C9.79095782,37.0511066 11.1815285,38.6025191 11.1815285,42.0914527 C10.7547783,41.7901246 10.2129997,41.7042276 9.71447643,41.8588571 C10.6636586,42.8135843 11.2387139,44.0792943 11.3344913,45.4245473 C11.3344913,45.4245473 9.63567742,46.5875252 8.70863027,47.750503 C7.95395604,47.7870852 7.20398661,47.8906062 6.4674938,48.0598551 C6.4674938,48.0598551 7.70278412,48.7576419 7.93454591,49.378672 C7.93454591,49.378672 4.30283871,53.1002012 2.44874442,56.1239437 C2.44874442,56.1239437 4.07107692,55.1168048 5.22988586,55.4261569 C5.22988586,55.4261569 2.6805062,58.5266559 1.82994045,63.6437586 C1.82994045,63.6437586 3.06523077,63.0227284 3.60755335,63.3344064 C3.60755335,63.3344064 2.06170223,66.5907445 1.98522084,70.0029215 L0.286406948,71.0100604 L1.60049628,71.9404427 C1.60049628,71.9404427 0.596967742,76.127163 0.365205955,78.5298753 C0.365205955,78.5298753 1.1369727,77.755332 1.75577667,77.5227364 C2.30039206,78.7780938 2.97381715,79.9731049 3.76515136,81.0884266 C4.9239603,82.639839 7.54982134,83.95633 9.09567246,83.95633 L11.9996476,83.8423581 C11.6404169,85.4030744 10.9289082,86.7242173 9.43172705,86.793996 L9.26485856,87.0614809 L9.17215385,87.0614809 C9.14202481,87.526672 8.22656576,87.5987767 7.97394541,87.9151066 C7.20913151,88.8734004 6.62509181,90.1898913 6.23573201,91.364499 C5.95066501,92.2251026 6.08508685,92.2251026 5.88808933,93.1089658 C5.82319603,93.3973843 5.52422333,93.7067364 5.42456576,93.9998068 C6.25890819,93.7183662 8.5695732,93.5346157 9.7886402,93.4415775 L9.80949876,94.5231469 C9.96828246,94.6595682 10.1483787,94.7688005 10.3425509,94.8464547 C10.3548403,94.8445715 10.3673433,94.8445715 10.3796328,94.8464547 C10.4905944,94.8553257 10.600656,94.8732167 10.7087345,94.8999517 C12.5350174,94.7348089 13.8073896,95.0464869 15.9256923,94.8697143 C16.3292885,94.8456457 16.7236806,94.7387768 17.0845012,94.5557103 C17.1747277,94.3240901 17.2301828,94.0803073 17.2490521,93.832338 C17.2490521,93.7625594 17.2490521,93.6881288 17.2768635,93.5997425 L17.3742035,93.5834608 C17.3995214,93.57921 17.425367,93.57921 17.4506849,93.5834608 L17.4784963,93.5834608 L17.5781538,93.5834608 C17.5992594,93.5766932 17.6219416,93.5766932 17.6430471,93.5834608 C18.0254541,93.5485714 18.6419404,93.516008 19.0336179,93.4950744 C20.2804963,93.4950744 21.9190521,93.6369577 21.9190521,93.6369577 C22.0210273,92.2413843 22.1230025,90.0619638 24.3826799,83.7237344 L24.9435434,83.374841 C24.9435434,83.374841 31.8848089,85.8287243 38.3231514,83.2748249 C38.8330273,84.533167 40.4808536,88.7640805 40.7404268,91.4319517 C40.9721886,91.7436298 40.9374243,92.1297384 40.9443772,92.5623662 C40.9443772,92.9182374 40.9814591,93.2741087 40.9907295,93.6276539 C41.6947706,93.5373956 42.4039082,93.4931093 43.1136675,93.4950744 C43.4960744,93.516008 44.1125608,93.5485714 44.5042382,93.5834608 C44.5253438,93.5766932 44.548026,93.5766932 44.5691315,93.5834608 L44.6687891,93.5834608 L44.6966005,93.5834608 C44.7219184,93.57921 44.747764,93.57921 44.7730819,93.5834608 L44.8704218,93.5997425 C44.8866452,93.6858028 44.8866452,93.7579074 44.8982333,93.832338 C44.9171026,94.0803073 44.9725576,94.3240901 45.0627841,94.5557103 L45.1624417,94.6068813 C46.3156716,94.4667728 47.4788195,94.4270835 48.6388685,94.4882575 C49.5485584,94.554391 50.4528718,94.6810463 51.3458462,94.8673883 L51.3458462,94.8929738 L51.6123722,94.9139074 C52.0944367,94.9999678 52.5765012,95.0813763 53.063201,95.1325473 L53.063201,93.518334 C54.0296476,93.5648531 55.4318065,93.7509296 56.0181638,93.8439678 C56.2499256,93.8997907 56.4399702,93.9346801 56.6392854,93.9765473 L56.7180844,93.9998068 L56.7180844,93.9998068 C56.9535791,94.0526448 57.1857477,94.1194393 57.4133697,94.199839 C57.369335,93.676499 57.3739702,93.6858028 57.3044417,93.0368612 C57.2511365,92.5274769 56.8872705,90.9830423 56.2082084,90.3457304 C56.2082084,90.3457304 56.9498462,90.6667123 57.1746551,90.7946398 C56.4446055,89.8014567 56.0900099,88.3826237 53.7955682,87.4033964 C54.0507929,87.2853929 54.3204196,87.2017112 54.597464,87.1545191 C54.2743928,86.9228466 53.8811521,86.8110276 53.4850074,86.8381891 C53.6217469,86.4451026 54.2289628,85.4565714 54.7365211,85.3286439 C54.483467,85.1892844 54.1814272,85.171353 53.9137667,85.2797988 C53.7227925,85.3783358 53.5385255,85.4894492 53.3621737,85.6124105 C53.3280921,85.6317337 53.2870538,85.6342699 53.2508673,85.6192893 C53.2146809,85.6043087 53.1873593,85.5734726 53.1767643,85.5356539 C53.0242996,84.9402501 52.9043771,84.3369276 52.8175335,83.7283863 C57.4411811,83.5609175 58.0901141,81.169835 58.0901141,81.169835 C58.4771563,81.4791871 58.4771563,82.1769738 58.4771563,82.1769738 C60.4679901,79.53934 60.2362283,76.9017062 60.2362283,76.9017062 C60.545199,76.9654963 60.8359034,77.0982546 61.086794,77.2901408 C61.3185558,73.2592596 60.0832655,66.3581489 60.0832655,66.3581489 C60.39949,66.5514979 60.8034178,66.5206028 61.086794,66.2813924 C60.6648383,66.0714986 60.3752559,65.6639266 60.3150273,65.195171 C60.8650552,65.2633218 61.3724726,64.8887884 61.4715186,64.3415453 Z"/>
      <path fill="#CDEAF5" d="M27.7107792,7.51146881 C27.4923843,5.56127405 27.6497501,3.58712461 28.1743027,1.69657948 C18.8273499,5.65070423 16.3544516,14.4079276 16.3544516,14.4079276 C15.7356476,12.9355976 15.6591663,9.59087324 15.6591663,9.59087324 C15.6591663,9.59087324 11.7980149,16.0779638 11.1027295,20.5763622 C10.4074442,25.0747606 11.7215335,37.9814889 11.7215335,37.9814889 C11.2140372,37.4434707 10.5266469,37.1122038 9.79095782,37.0511066 C9.79095782,37.0511066 11.1815285,38.6025191 11.1815285,42.0914527 C10.7547783,41.7901246 10.2129997,41.7042276 9.71447643,41.8588571 C10.6636586,42.8135843 11.2387139,44.0792943 11.3344913,45.4245473 C11.3344913,45.4245473 9.63567742,46.5875252 8.70863027,47.750503 C7.95395604,47.7870852 7.20398661,47.8906062 6.4674938,48.0598551 C6.4674938,48.0598551 7.70278412,48.7576419 7.93454591,49.378672 C7.93454591,49.378672 4.30283871,53.1002012 2.44874442,56.1239437 C2.44874442,56.1239437 4.07107692,55.1168048 5.22988586,55.4261569 C5.22988586,55.4261569 2.6805062,58.5266559 1.82994045,63.6437586 C1.82994045,63.6437586 3.06523077,63.0227284 3.60755335,63.3344064 C3.60755335,63.3344064 2.06170223,66.5907445 1.98522084,70.0029215 L0.286406948,71.0100604 L1.60049628,71.9404427 C1.60049628,71.9404427 0.596967742,76.127163 0.365205955,78.5298753 C0.365205955,78.5298753 1.1369727,77.755332 1.75577667,77.5227364 C2.30039206,78.7780938 2.97381715,79.9731049 3.76515136,81.0884266 C4.9239603,82.639839 7.54982134,83.95633 9.09567246,83.95633 L9.29035236,83.9284185 C9.20978811,84.4640295 9.10148595,84.9950665 8.96588586,85.5193722 C8.9552908,85.5571909 8.92796921,85.588027 8.89178278,85.6030076 C8.85559634,85.6179882 8.81455802,85.615452 8.78047643,85.5961288 C8.60412463,85.4731675 8.41985762,85.3620542 8.22888337,85.2635171 C7.96122293,85.1550713 7.65918313,85.1730027 7.40612903,85.3123622 C7.91368734,85.4402897 8.52090323,86.4288209 8.65764268,86.8219074 C8.26149804,86.7947459 7.86825732,86.9065649 7.5451861,87.1382374 C7.82223056,87.1854295 8.09185725,87.2691112 8.34708189,87.3871147 C6.0526402,88.3663421 5.69804467,89.7851751 4.96799504,90.7783581 C5.19975682,90.6504306 5.93444169,90.3294487 5.93444169,90.3294487 C5.25537965,90.9667606 4.89151365,92.5111952 4.83820844,93.0205795 C4.7686799,93.6788249 4.77331514,93.6671952 4.7292804,94.1835573 C5.18473851,94.0363936 5.64923976,93.9190736 6.11985112,93.832338 C6.88002978,93.7206922 9.00760298,93.4276217 9.78632258,93.5090302 L9.66348883,95.0162495 L9.71215881,95.0162495 C10.0683839,94.934775 10.4316204,94.8880387 10.796804,94.8766922 C10.796804,94.4603461 10.8246154,94.046326 10.857062,93.6323058 C10.8436614,92.9363759 10.9136926,92.2413536 11.0656476,91.5622052 L11.081871,91.4877746 C11.2849369,90.7779721 11.6627213,90.1308687 12.1804218,89.6060765 C12.2876098,89.4876877 12.3809235,89.3573589 12.458536,89.2176419 C12.6874538,88.9103781 12.8701768,88.571046 13.0008586,88.210503 C13.3183722,87.3405956 13.1816328,85.4193561 12.537335,83.5585915 C13.020369,84.2948754 13.5466256,85.0016641 14.1133151,85.6752113 L14.0947742,83.3004105 C14.0947742,83.3004105 15.3300645,84.5401449 16.4378859,85.477505 C16.9467165,85.9470159 17.501958,86.3631917 18.0949826,86.7195654 C18.1297469,86.740499 18.1598759,86.7614326 18.1969578,86.7823662 L18.1969578,86.7823662 L18.2108635,86.7823662 C18.8366203,87.1359115 19.4809181,87.4522414 20.0858164,87.843002 C20.1507097,87.8848692 20.215603,87.9220845 20.2804963,87.9662777 C20.560928,88.159332 21.052263,88.3826237 21.4926104,88.6175453 L21.9097816,93.5741569 C22.2875533,88.370994 25.2425161,83.3887968 25.2425161,83.3887968 L25.1335881,83.3562334 C24.218129,83.0724668 17.5294839,80.751163 13.5756278,72.4568048 C13.313737,71.9404427 15.0426799,73.1034205 15.0426799,73.1034205 C13.4203474,69.1492958 12.8015434,62.7924588 12.8015434,62.7924588 C13.1090234,63.0647881 13.4821586,63.2516259 13.883871,63.3344064 C12.725062,60.0780684 12.2615385,56.0471871 12.2615385,52.4024145 C11.9532953,32.7876298 19.1749926,28.2892314 19.1749926,28.2892314 C18.3557048,28.0020837 17.4934069,27.8581126 16.6256129,27.8635815 C18.0555831,24.4141891 22.8066998,19.6064386 22.8066998,19.6064386 C21.5320099,19.6831952 16.5491315,21.0415533 16.5491315,21.0415533 C20.6814442,10.2258592 24.8531563,7.35795573 24.8531563,7.35795573 C24.5449132,9.95604829 25.5484417,12.7076539 25.5484417,12.7076539 C34.51067,1.58260765 41.7091911,2.10129577 41.7091911,2.10129577 C42.0244853,1.43821523 42.4065649,0.809256893 42.8494591,0.224249497 C33.194263,0.221923541 27.7107792,7.51146881 27.7107792,7.51146881 Z"/>
      <path fill="#AADAE2" d="M9.82572208,79.0764748 C10.9196377,68.3212555 11.2162928,47.2853119 11.2162928,47.2853119 C8.84073449,51.9953722 6.92869975,60.5432596 6.92869975,60.5432596 L7.39222333,62.4040241 L6.34929529,61.938833 C4.67365757,67.7769819 5.8069727,75.5921932 6.1824268,77.7948732 C7.25084864,78.6415211 8.52090323,78.9183099 9.82572208,79.0764748 Z"/>
      <path fill="#84C0CE" d="M9.74228784,79.906841 C7.19290819,79.4718873 4.86138462,76.5202495 4.86138462,76.5202495 C5.97655996,77.7099577 7.44749485,78.5027763 9.05163772,78.7787525 C9.35756328,76.5039678 7.48492804,71.2984789 7.48492804,71.2984789 C8.70414541,72.8907427 9.57305145,74.7243882 10.0343077,76.6784145 L9.74228784,79.906841 Z"/>
      <path fill="#AADAE2" d="M15.5502382,75.8806117 C15.5502382,75.8806117 17.5642481,79.4416499 19.330273,80.9837586 C21.2376725,82.6468169 23.0106501,84.9960322 23.7638759,86.4218431 C23.7638759,86.4218431 24.7210521,84.1935775 25.2425161,83.4167082 C25.2401985,83.4143823 19.5921638,81.7536499 15.5502382,75.8806117 Z"/>
      <path fill="#5B5A5C" d="M14.7854243,22.8418431 C14.5652506,22.8581247 13.8583772,22.8767324 13.8583772,22.8767324 C7.48956328,23.3233159 2.80797519,18.3690302 2.80797519,18.3690302 C2.66818833,20.9956171 3.50479862,23.5807849 5.15572208,25.6236861 C7.92295782,29.0126036 13.5315931,29.5917666 13.5315931,29.5917666 C13.7146849,30.3849175 13.3183722,32.1503179 13.3183722,32.1503179 C13.3183722,32.1503179 14.9592457,30.3290946 15.3740993,26.8797022 C15.6661191,24.4630342 14.9105757,22.8302133 14.7784715,22.8418431"/>
      <path fill="#737F83" d="M14.7854243,22.8418431 C14.5745211,22.8534728 13.8583772,22.8767324 13.8583772,22.8767324 C7.48956328,23.3233159 2.80797519,18.3690302 2.80797519,18.3690302 C2.80797519,18.3690302 5.71890323,26.8215533 15.4366749,26.1516781 C15.5601424,25.00733 15.3320967,23.8524488 14.7831067,22.8418431"/>
      <path fill="#5B5A5C" d="M46.5877767,22.8418431 C46.8079504,22.8581247 47.5148238,22.8767324 47.5148238,22.8767324 C53.8836377,23.3233159 58.5652258,18.3690302 58.5652258,18.3690302 C58.7050127,20.9956171 57.8684024,23.5807849 56.2174789,25.6236861 C53.4502432,29.0126036 47.8416079,29.5917666 47.8416079,29.5917666 C47.6585161,30.3849175 48.0548288,32.1503179 48.0548288,32.1503179 C48.0548288,32.1503179 46.4139553,30.3290946 45.9991017,26.8797022 C45.7070819,24.4630342 46.4626253,22.8302133 46.5947295,22.8418431"/>
      <path fill="#737F83" d="M46.5877767,22.8418431 C46.7986799,22.8534728 47.5148238,22.8767324 47.5148238,22.8767324 C53.8836377,23.3233159 58.5652258,18.3690302 58.5652258,18.3690302 C58.5652258,18.3690302 55.6519801,26.8169014 45.9342084,26.1516781 C45.8107409,25.00733 46.0387867,23.8524488 46.5877767,22.8418431"/>
      <path fill="#CDEAF5" d="M11.3344913 51.4720322C11.3344913 51.4720322 6.93101737 67.9863179 11.3344913 78.5694165L11.3344913 51.4720322zM57.0495037 77.594841C55.7131754 78.6261833 54.1168634 79.2633001 52.4397618 79.434672 52.335469 77.1738431 54.7967792 72.2242093 54.7967792 72.2242093 54.2708681 72.5298837 53.8006305 72.9231581 53.4062084 73.3871871L53.3899851 71.7287807 55.167598 70.2564507 53.7376278 69.0934728 55.5523226 61.7667123 53.8141092 62.9296901C53.8141092 62.9296901 53.2741042 52.5024306 53.6588288 48.0040322 53.6588288 48.0040322 51.4570918 45.7943742 50.3747643 44.9035332 50.3747643 44.9035332 50.5787146 48.1133521 50.812794 53.2444105 51.8000993 57.3590262 53.3320447 65.8766761 51.4246452 73.3662535 51.4455037 74.8851026 51.4640447 76.4272113 51.4709975 77.9832757 51.4709975 77.9832757 52.4212208 81.2954366 52.729464 83.6213924 52.9841167 83.6733327 53.2465781 83.6733327 53.5012308 83.6213924L53.4803722 80.0812877C54.9025609 79.6529826 56.1523879 78.7822867 57.0495037 77.594841L57.0495037 77.594841z"/>
      <ellipse cx="38.142" cy="45.618" fill="#CDEAF5" rx="2.51" ry="3.189"/>
      <ellipse cx="38.179" cy="44.766" fill="#FFFFFF" rx="2.473" ry="3.14"/>
      <path fill="#4E4D50" d="M37.5235732,43.1474366 C37.5034097,43.2233632 37.4925142,43.3014675 37.4911266,43.3800322 C37.4911266,43.8219638 37.7785112,44.180161 38.1331067,44.180161 C38.4761267,44.1484327 38.7442841,43.8694163 38.7634988,43.5242414 C38.9799152,43.8191326 39.0946395,44.1767925 39.0902829,44.5430101 C39.0902829,45.3617465 38.5595484,46.0269698 37.9036625,46.0269698 C37.2477767,46.0269698 36.7170422,45.3640724 36.7170422,44.545336 C36.689292,43.9609116 37.0047131,43.414216 37.5235732,43.1474366 Z"/>
      <ellipse cx="26.091" cy="45.618" fill="#CDEAF5" rx="2.51" ry="3.189"/>
      <ellipse cx="26.128" cy="44.766" fill="#FFFFFF" rx="2.473" ry="3.14"/>
      <path fill="#4E4D50" d="M25.9354839,43.1474366 C25.9153203,43.2233632 25.9044249,43.3014675 25.9030372,43.3800322 C25.9030372,43.8219638 26.1904218,44.180161 26.5450174,44.180161 C26.8880374,44.1484327 27.1561948,43.8694163 27.1754094,43.5242414 C27.3918258,43.8191326 27.5065502,44.1767925 27.5021935,44.5430101 C27.5021935,45.3617465 26.9714591,46.0269698 26.3155732,46.0269698 C25.6596873,46.0269698 25.1289529,45.3640724 25.1289529,44.545336 C25.1012027,43.9609116 25.4166238,43.414216 25.9354839,43.1474366 Z"/>
      <path fill="#5B5A5C" d="M46.634129,41.7890785 C44.8393937,41.5389923 43.0249967,41.4611084 41.2155385,41.5564829 C38.7915042,41.6996042 36.3773849,41.9791585 33.9845707,42.393827 C33.5210471,42.4705835 33.1525459,42.5287324 32.8721141,42.5659477 L32.5661886,42.6078149 C32.2231811,42.654334 31.9983722,42.6845714 31.8083275,42.6938753 C31.6182829,42.7031791 31.3911563,42.654334 31.0504665,42.6078149 L30.7445409,42.5659477 C30.4641092,42.5287324 30.0979256,42.4682575 29.6320844,42.393827 C27.2392702,41.9791585 24.8251509,41.6996042 22.4011166,41.5564829 C20.5916584,41.4611084 18.7772614,41.5389923 16.9825261,41.7890785 C16.2235609,41.8962355 15.4798622,42.0929785 14.7668834,42.3752193 L14.9615633,43.6777545 C14.9615633,43.6777545 16.0415732,43.4195734 17.0960893,43.2776901 C17.2930868,45.1151952 17.6731762,47.4783662 17.6731762,47.4783662 L17.6731762,47.5504708 C17.7033052,47.6690946 17.728799,47.7830664 17.758928,47.910994 C17.9767841,48.8413763 18.1923226,49.3856499 19.0591117,49.7136097 C19.9259007,50.0415694 21.9283226,50.3346398 23.9631911,50.4416338 C24.7929766,50.4766014 25.6241899,50.4314251 26.4453598,50.3067284 C27.7339553,50.118326 28.8973995,49.7694326 29.3423821,49.4391469 C29.9889975,48.96 30.3366402,47.750503 30.5660844,46.9503742 L30.6356129,46.7177787 C30.7167295,46.4456419 30.7862581,46.1595493 30.8557866,45.8804346 C30.9195808,45.5539816 31.0150582,45.2345785 31.1408536,44.9267928 C31.1570769,44.9012072 31.2289231,44.8151469 31.5116725,44.7732797 C31.7069108,44.7453508 31.9051091,44.7453508 32.1003474,44.7732797 C32.3830968,44.8151469 32.4549429,44.9012072 32.4711663,44.9267928 C32.5969756,45.2345735 32.6924535,45.553978 32.7562333,45.8804346 C32.8234442,46.1572233 32.8952903,46.4433159 32.9764069,46.7177787 L33.0459355,46.9503742 C33.2776973,47.750503 33.6207047,48.957674 34.2696377,49.4391469 C34.7146203,49.7694326 35.8780645,50.118326 37.16666,50.3067284 C37.9878299,50.4314251 38.8190433,50.4766014 39.6488288,50.4416338 C41.6836973,50.3369658 43.7000248,50.0369175 44.5529082,49.7136097 C45.4057916,49.3903018 45.6352357,48.8413763 45.8530918,47.910994 C45.8832208,47.7853924 45.9087146,47.6783984 45.9388437,47.5504708 L45.9388437,47.4783662 C45.9388437,47.4783662 46.3212506,45.1175211 46.5159305,43.2776901 C47.5704467,43.4195734 48.6504566,43.6777545 48.6504566,43.6777545 L48.8451365,42.3752193 C48.1336419,42.0933311 47.3915193,41.8965934 46.634129,41.7890785 L46.634129,41.7890785 Z M29.7943176,44.6197666 L29.7943176,44.6407002 C29.74333,45.0640241 29.4675335,47.1992515 29.015598,47.9365795 C28.5636625,48.6739074 28.4246055,48.8181167 27.068799,49.0483863 L26.8857072,49.0762978 C25.4232903,49.2902857 22.7533945,49.327501 21.2608486,49.0414085 L21.1565558,49.0204748 C19.6315633,48.7250785 19.0961935,48.5971509 18.9385955,48.1226559 C18.7253747,47.4783662 18.3174739,44.5081207 18.2873449,43.8684829 C18.2898583,43.5270418 18.514863,43.227531 18.8412556,43.1311549 C18.9628786,43.1024548 19.0858692,43.0799418 19.2097568,43.0637022 C20.7069091,42.8726383 22.2153531,42.7848214 23.7244764,42.8008692 C25.1150471,42.86367 28.5358511,43.3474688 29.3029826,43.6940362 C29.8754342,43.9475654 29.8476228,44.1708571 29.7943176,44.6174406 L29.7943176,44.6197666 Z M44.6780596,48.12033 C44.5204615,48.5855211 43.9827742,48.7227525 42.4600993,49.0181489 L42.3558065,49.0390825 C40.8632605,49.327501 38.1840943,49.2902857 36.7309479,49.0739718 L36.5478561,49.0460604 C35.1920496,48.8134648 35.0390868,48.6390181 34.6010571,47.9342535 C34.1630273,47.2294889 33.8733251,45.0616982 33.8223375,44.6383742 L33.8223375,44.6174406 C33.7690323,44.1708571 33.7412208,43.9475654 34.3136725,43.6870584 C35.0831216,43.3404909 38.4853846,42.8566922 39.8921787,42.7938913 C41.401302,42.7778435 42.909746,42.8656604 44.4068983,43.0567243 C44.5307858,43.0729639 44.6537765,43.0954769 44.7753995,43.1241771 C45.1017921,43.2205531 45.3267968,43.520064 45.3293102,43.861505 C45.2991811,44.494165 44.8912804,47.4760402 44.6780596,48.12033 L44.6780596,48.12033 Z"/>
      <path fill="#A0D5E9" d="M26.862531 38.4862213C26.862531 38.4862213 24.0813896 37.1487968 22.4706452 39.6305915 22.4706452 39.6305915 22.3060943 37.1627525 24.5565012 36.8859638 26.8069082 36.6091751 26.862531 38.4862213 26.862531 38.4862213zM25.8172854 34.8600563C25.8172854 34.8600563 23.2285062 33.6342777 22.0488387 35.9904708 22.0488387 35.9904708 21.6641141 33.932 23.5112556 33.4319195 25.358397 32.931839 25.8172854 34.8600563 25.8172854 34.8600563zM36.8676873 40.0004185C36.8676873 40.0004185 39.0369777 38.9630423 40.2769032 40.8912596 40.2769032 40.8912596 40.4043722 38.974672 38.6545707 38.7606841 36.9047692 38.5466962 36.8676873 40.0004185 36.8676873 40.0004185zM38.4112208 36.5673078C38.4112208 36.5673078 40.606005 36.2114366 40.9814591 38.2233883 40.9814591 38.2233883 41.7091911 36.769666 40.4368189 35.9997746 39.1644467 35.2298833 38.4112208 36.5673078 38.4112208 36.5673078z"/>
      <path fill="#B1DFF0" d="M26.6701687,58.0405312 C26.6701687,58.0405312 28.2021141,57.0078068 29.1059851,56.8635976 C29.1059851,56.8635976 29.3029826,58.8127485 30.2022184,59.7756942 C30.2022184,59.7756942 32.1420645,58.0219235 34.0610521,57.8963219 C34.0610521,57.8963219 34.5570223,58.9662616 35.3612357,59.361674 L35.3612357,59.3733038 C35.6650498,59.5734951 35.9992888,59.7227548 36.3508586,59.8152354 C37.0292006,59.3710035 37.5316888,58.7029965 37.7715583,57.9265594 C37.7715583,57.9265594 37.8781687,60.5037183 36.2651067,61.9109215 C35.4798608,61.507746 34.7651984,60.9790514 34.1491216,60.3455533 C33.8892059,60.1066378 33.6616791,59.8345001 33.4723772,59.5361207 C33.4723772,59.5361207 30.62866,61.5550503 30.5243672,62.7087243 C30.5243672,62.7087243 28.4709578,60.6990986 27.7710372,59.1500121 C27.7710372,59.1500121 26.4013251,59.5849658 26.0212357,59.8640805 C26.0212357,59.8640805 24.9203672,58.0568129 24.6955583,56.423992 C24.6886055,56.423992 26.0119653,57.6939638 26.6701687,58.0405312 Z"/>
      <path fill="#5B5A5C" d="M31.8407742,52.9722736 C31.7272109,52.9490141 34.7262084,53.1816097 37.6719007,53.0746157 C37.7574176,52.7663775 37.8861754,52.47191 38.0543077,52.2000563 C38.0543077,52.2000563 38.0056377,53.1490463 38.2698462,53.3444266 C37.3215924,53.6985892 36.3216592,53.89348 35.3102481,53.9212636 C35.3102481,53.9212636 36.9325806,53.6491268 37.4725856,53.3700121 C35.586365,53.4518546 33.696985,53.3184199 31.8407742,52.9722736 L31.8407742,52.9722736 Z"/>
    </g>
  </g>
</svg>
